# xmcd CD database file generated by Grip 3.2.0
# 
# Track frame offsets:
#       150
#       13255
#       26988
#       37950
#       58009
#       77606
#       90911
#       111721
#       116624
#       135594
#       152119
#       171361
# 
# Disc length: 2568 seconds
# 
# Revision: 1
# Processed by: cddbd v1.5.1PL0 Copyright (c) Steve Scherf et al.
# Submitted via: Grip 3.2.0
# 
DISCID=9c0a060c
DTITLE=ジャパハリネット - 東京ウォール
DYEAR=2005
DGENRE=Other
TTITLE0=非線形の箒星
TTITLE1=聖戦パラドックス
TTITLE2=フィルターを蹴飛ばせ
TTITLE3=帰り道(Album Version)
TTITLE4=対角線上のアリア
TTITLE5=暴かれし世界
TTITLE6=あかいはる
TTITLE7=あじさいの庭
TTITLE8=あの娘の街まで
TTITLE9=遙かなる日々(Album Version)
TTITLE10=Tokyo Wall
TTITLE11=黎明時代-レイメイジダイ-
EXTD=YEAR: 2005
EXTT0=
EXTT1=
EXTT2=
EXTT3=
EXTT4=
EXTT5=
EXTT6=
EXTT7=
EXTT8=
EXTT9=
EXTT10=
EXTT11=
PLAYORDER=
